<svg width="680" height="320" viewBox="0 0 680 320" xmlns="http://www.w3.org/2000/svg">
  <defs>
    <style>
      .logo-bg { fill: #0F172A; }
      .hex { fill: none; stroke: #10B981; stroke-width: 1.5; }
      .hex-inner { fill: #10B981; fill-opacity: 0.08; }
      .node-dot { fill: #10B981; }
      .conn { stroke: #10B981; stroke-width: 1; fill: none; opacity: 0.35; }
      .conn-bright { stroke: #10B981; stroke-width: 1.5; fill: none; opacity: 0.7; }
      .lp { font-family: 'Syne', 'DM Sans', sans-serif; font-weight: 800; font-size: 38px; fill: #10B981; letter-spacing: -1px; }
      .rest { font-family: 'Syne', 'DM Sans', sans-serif; font-weight: 800; font-size: 38px; fill: #F8FAFC; letter-spacing: -1px; }
      .tagline { font-family: 'DM Mono', monospace; font-size: 11px; fill: #94A3B8; letter-spacing: 0.18em; text-transform: uppercase; }
      .bracket { fill: none; stroke: #10B981; stroke-width: 1.5; opacity: 0.5; stroke-linecap: round; }
      .ring { fill: none; stroke: #10B981; stroke-width: 0.5; opacity: 0.15; }
    </style>
  </defs>

  <rect width="680" height="320" rx="16" class="logo-bg"/>

  <circle cx="130" cy="160" r="90" class="ring"/>
  <circle cx="130" cy="160" r="65" class="ring" style="opacity:0.1"/>
  <circle cx="130" cy="160" r="40" class="ring" style="opacity:0.2"/>

  <polygon points="130,100 158,116 158,148 130,164 102,148 102,116" class="hex-inner"/>
  <polygon points="130,100 158,116 158,148 130,164 102,148 102,116" class="hex"/>

  <circle cx="130" cy="88" r="4" class="node-dot"/>
  <circle cx="164" cy="107" r="4" class="node-dot" style="opacity:0.6"/>
  <circle cx="164" cy="157" r="4" class="node-dot" style="opacity:0.4"/>
  <circle cx="130" cy="176" r="4" class="node-dot" style="opacity:0.5"/>
  <circle cx="96" cy="157" r="4" class="node-dot" style="opacity:0.3"/>
  <circle cx="96" cy="107" r="4" class="node-dot" style="opacity:0.5"/>

  <circle cx="130" cy="132" r="6" class="node-dot"/>
  <circle cx="130" cy="132" r="10" fill="none" stroke="#10B981" stroke-width="1" opacity="0.3"/>

  <line x1="130" y1="132" x2="130" y2="88" class="conn-bright"/>
  <line x1="130" y1="132" x2="164" y2="107" class="conn"/>
  <line x1="130" y1="132" x2="164" y2="157" class="conn"/>
  <line x1="130" y1="132" x2="130" y2="176" class="conn"/>
  <line x1="130" y1="132" x2="96" y2="157" class="conn"/>
  <line x1="130" y1="132" x2="96" y2="107" class="conn-bright"/>

  <circle cx="130" cy="68" r="2.5" fill="#10B981" opacity="0.4"/>
  <circle cx="75" cy="90" r="2.5" fill="#10B981" opacity="0.3"/>
  <circle cx="75" cy="174" r="2.5" fill="#10B981" opacity="0.25"/>
  <circle cx="185" cy="90" r="2.5" fill="#10B981" opacity="0.3"/>
  <circle cx="185" cy="174" r="2.5" fill="#10B981" opacity="0.2"/>

  <line x1="130" y1="88" x2="130" y2="68" stroke="#10B981" stroke-width="0.5" opacity="0.2" fill="none"/>
  <line x1="96" y1="107" x2="75" y2="90" stroke="#10B981" stroke-width="0.5" opacity="0.15" fill="none"/>
  <line x1="164" y1="107" x2="185" y2="90" stroke="#10B981" stroke-width="0.5" opacity="0.15" fill="none"/>

  <path d="M210,108 L202,108 L202,152 L210,152" class="bracket"/>
  <path d="M576,108 L584,108 L584,152 L576,152" class="bracket"/>

  <text x="224" y="155" class="lp">LPAGES</text>
  <text x="414" y="155" class="rest">APPLABS</text>

  <text x="340" y="198" text-anchor="middle" class="tagline">Secure Apps · Modern Infrastructure</text>

  <line x1="260" y1="212" x2="420" y2="212" stroke="#10B981" stroke-width="0.5" opacity="0.3" fill="none"/>
  <circle cx="260" cy="212" r="2" fill="#10B981" opacity="0.3"/>
  <circle cx="420" cy="212" r="2" fill="#10B981" opacity="0.3"/>
</svg>
